<svg height="512pt" viewBox="0 0 511 512" width="512pt" xmlns="http://www.w3.org/2000/svg"><path d="m221.480469 120.492188v104.988281h215.984375l74.996094-74.992188zm0 0" fill="#636363"/><path d="m401.253906 39.285156-29.996094 29.996094-30-29.996094-36.207031 36.207032h-83.570312v74.996093h290.980469zm0 0" fill="#828282"/><path d="m512.460938 362.011719h-210.171876l-45.808593-71.992188-39.996094 160.984375 39.996094 60.996094h255.980469zm0 0" fill="#fbd141"/><path d="m210.671875 362.011719h-210.171875v149.988281h255.980469v-221.980469zm0 0" fill="#fbf24a"/><path d="m331.472656 421.964844h30v30h-30zm0 0" fill="#242424"/><path d="m271.476562 421.964844h30v30h-30zm0 0" fill="#242424"/><path d="m211.484375 421.964844h29.996094v30h-29.996094zm0 0" fill="#434343"/><path d="m151.488281 421.964844h29.996094v30h-29.996094zm0 0" fill="#434343"/><path d="m301.476562 150.488281c0-41.925781-17.242187-79.894531-44.996093-107.210937l-59.996094 107.210937 59.996094 107.210938c27.753906-27.316407 44.996093-65.285157 44.996093-107.210938zm0 0" fill="#828282"/><path d="m150.988281 0c-82.980469 0-150.488281 67.507812-150.488281 150.488281s67.507812 150.488281 150.488281 150.488281c41.054688 0 78.3125-16.53125 105.492188-43.277343v-214.421875c-27.179688-26.746094-64.4375-43.277344-105.492188-43.277344zm-45.496093 180.484375c-16.566407 0-30-13.429687-30-29.996094 0-16.566406 13.433593-29.996093 30-29.996093 16.566406 0 29.996093 13.429687 29.996093 29.996093 0 16.566407-13.429687 29.996094-29.996093 29.996094zm0 0" fill="#a1a1a1"/></svg>