<svg height="512pt" viewBox="0 0 512 512" width="512pt" xmlns="http://www.w3.org/2000/svg"><path d="m367.8125 302.3125c-12.265625 29.578125-35.921875 53.234375-65.5 65.5v124.75h51.675781c62.574219-25.953125 112.621094-76 138.574219-138.574219v-51.675781zm0 0" fill="#fbf24a"/><path d="m367.8125 209.6875h124.75v-51.675781c-25.953125-62.574219-76-112.621094-138.574219-138.574219h-51.675781v124.75c29.578125 12.265625 53.234375 35.921875 65.5 65.5zm0 0" fill="#fbf24a"/><g fill="#f86d24"><path d="m353.988281 19.4375c-30.1875-12.515625-63.277343-19.4375-97.988281-19.4375l-50 67.5 50 67.5c16.40625 0 32.046875 3.273438 46.3125 9.1875zm0 0"/><path d="m492.5625 158.011719-124.75 51.675781c5.914062 14.265625 9.1875 29.90625 9.1875 46.3125s-3.273438 32.046875-9.1875 46.3125l124.75 51.675781c12.515625-30.1875 19.4375-63.277343 19.4375-97.988281s-6.921875-67.800781-19.4375-97.988281zm0 0"/><path d="m256 377-50 67.5 50 67.5c34.710938 0 67.800781-6.921875 97.988281-19.4375l-51.675781-124.75c-14.265625 5.914062-29.90625 9.1875-46.3125 9.1875zm0 0"/></g><path d="m144.1875 302.3125c12.265625 29.578125 35.921875 53.234375 65.5 65.5v124.75h-51.675781c-62.574219-25.953125-112.621094-76-138.574219-138.574219v-51.675781zm0 0" fill="#fdf9a5"/><path d="m144.1875 209.6875h-124.75v-51.675781c25.953125-62.574219 76-112.621094 138.574219-138.574219h51.675781v124.75c-29.578125 12.265625-53.234375 35.921875-65.5 65.5zm0 0" fill="#fdf9a5"/><path d="m158.011719 19.4375c30.1875-12.515625 63.277343-19.4375 97.988281-19.4375v135c-16.40625 0-32.046875 3.273438-46.3125 9.1875zm0 0" fill="#fa8d40"/><path d="m19.4375 158.011719 124.75 51.675781c-5.914062 14.265625-9.1875 29.90625-9.1875 46.3125s3.273438 32.046875 9.1875 46.3125l-124.75 51.675781c-12.515625-30.1875-19.4375-63.277343-19.4375-97.988281s6.921875-67.800781 19.4375-97.988281zm0 0" fill="#fa8d40"/><path d="m256 377v135c-34.710938 0-67.800781-6.921875-97.988281-19.4375l51.675781-124.75c14.265625 5.914062 29.90625 9.1875 46.3125 9.1875zm0 0" fill="#fa8d40"/></svg>