<svg height="512pt" viewBox="0 0 512 512" width="512pt" xmlns="http://www.w3.org/2000/svg"><path d="m335.941406 12.738281c.023438.753907.058594 1.503907.058594 2.261719l-121.652344 68.308594-86.347656 172.691406 128 256c31.675781 0 62-5.769531 90-16.285156l143.539062-344.714844c-29.320312-65.117188-85.078124-115.757812-153.597656-138.261719zm0 0" fill="#0a77e8"/><path d="m336 15c0-.757812-.035156-1.507812-.058594-2.261719-25.152344-8.261719-52.023437-12.738281-79.941406-12.738281l-41.652344 83.308594c12.132813 7.414062 26.390625 11.691406 41.652344 11.691406 44.183594 0 80-35.816406 80-80zm0 0" fill="#b2f5ff"/><path d="m407 151v30h-61v60h-30v30h91v30h-46c-33.085938 0-60 26.914062-60 60 0 27.90625 19.148438 51.425781 45 58.101562v76.613282c96.980469-36.429688 166-130.003906 166-239.714844 0-37.417969-8.03125-72.960938-22.460938-105zm0 0" fill="#163f69"/><path d="m196 324-161.742188 60c44.261719 76.515625 126.988282 128 221.742188 128zm0 0" fill="#13bdf7"/><path d="m34.257812 128 161.742188 128 60-256c-94.753906 0-177.480469 51.484375-221.742188 128zm0 0" fill="#b2f5ff"/><path d="m196 128h-161.742188c-21.785156 37.65625-34.257812 81.371094-34.257812 128l196 60zm0 0" fill="#65eaff"/><path d="m196 256h-196c0 46.628906 12.472656 90.34375 34.257812 128h161.742188zm0 0" fill="#18e0ff"/><path d="m145.128906 128 55.433594 30 55.4375-30v-128c-47.378906 0-88.738281 51.484375-110.871094 128zm0 0" fill="#65eaff"/><path d="m128 256 64 30 64-30v-128h-110.871094c-10.890625 37.65625-17.128906 81.371094-17.128906 128zm0 0" fill="#18e0ff"/><path d="m128 256c0 46.628906 6.238281 90.34375 17.128906 128l55.433594 30 55.4375-30v-128zm0 0" fill="#13bdf7"/><path d="m256 512v-128h-110.871094c22.132813 76.515625 63.492188 128 110.871094 128zm0 0" fill="#0f9af0"/><path d="m316 106h30v45h-30zm0 0" fill="#163f69"/></svg>